#include "godrest.h"
#include "Tone.h"

static const int godRest_mel[] = {
  NOTE_C4, NOTE_C4, NOTE_G4, NOTE_G4, NOTE_F4, NOTE_DS4, NOTE_D4, NOTE_C4, NOTE_AS3, NOTE_C4, NOTE_D4, NOTE_DS4, NOTE_F4, NOTE_G4,
  NOTE_C4, NOTE_C4, NOTE_G4, NOTE_G4, NOTE_F4, NOTE_DS4, NOTE_D4, NOTE_C4, NOTE_AS3, NOTE_C4, NOTE_D4, NOTE_DS4, NOTE_F4, NOTE_G4,

  NOTE_G4, NOTE_GS4, NOTE_F4, NOTE_G4, NOTE_GS4, NOTE_AS4, NOTE_C5, NOTE_G4, NOTE_F4, NOTE_DS4, NOTE_C4, NOTE_D4, NOTE_DS4, NOTE_F4, 
  NOTE_DS4, NOTE_F4, NOTE_G4, NOTE_GS4, NOTE_G4, NOTE_G4, NOTE_F4, NOTE_DS4, NOTE_D4, NOTE_C4, NOTE_DS4, NOTE_C4, NOTE_F4,
  NOTE_DS4, NOTE_F4, NOTE_G4, NOTE_GS4, NOTE_AS4, NOTE_C5, NOTE_G4, NOTE_F4, NOTE_DS4, NOTE_D4, NOTE_C4
};

static const int godRest_har[] = {
  NOTE_C3, NOTE_C3, NOTE_DS3, NOTE_DS3, NOTE_D3, NOTE_C3, NOTE_G3, NOTE_DS3, NOTE_G3, NOTE_AS3, NOTE_AS3, NOTE_F3, NOTE_F3, NOTE_G3,
  NOTE_C3, NOTE_C3, NOTE_DS3, NOTE_DS3, NOTE_D3, NOTE_C3, NOTE_G3, NOTE_DS3, NOTE_G3, NOTE_AS3, NOTE_AS3, NOTE_F3, NOTE_F3, NOTE_G3,

  NOTE_G3, NOTE_F3, NOTE_D3, NOTE_DS3, NOTE_F3, NOTE_G3, NOTE_GS3, NOTE_DS3, NOTE_D3, NOTE_C3, NOTE_C4, NOTE_B3, NOTE_B3, NOTE_AS3, 
  NOTE_A3, NOTE_A3, NOTE_G3, NOTE_F3, NOTE_F3, NOTE_DS3, NOTE_F3, NOTE_G3, NOTE_DS3, NOTE_GS3, NOTE_A3, NOTE_A3, NOTE_AS3,
  NOTE_B3, NOTE_B3, NOTE_AS3, NOTE_AS3, NOTE_GS3, NOTE_GS3, NOTE_G3, NOTE_G2, NOTE_A2, NOTE_B2, NOTE_C3

};
static const int godRest_len[] = {
  1, 1, 1, 1, 1, 1, 1, 1, 1, 1, 1, 1, 1, 3,
  1, 1, 1, 1, 1, 1, 1, 1, 1, 1, 1, 1, 1, 3,
  1, 1, 1, 1, 1, 1, 1, 1, 1, 1, 1, 1, 1, 2,
  1, 1, 2, 1, 1, 1, 1, 1, 1, 2, 1, 1, 2,
  1, 1, 1, 1, 1, 1, 1, 1, 1, 1, 7
};

const Tune GodRest_Tune = {
  godRest_mel,
  godRest_har,
  godRest_len,
  sizeof(godRest_mel) / sizeof(godRest_mel[0])
};